<svg width="75" height="16" viewBox="0 0 75 16" fill="none" xmlns="http://www.w3.org/2000/svg">
<path d="M27.1853 14.8883C27.0224 14.8883 26.8697 14.8089 26.7761 14.6756L24.2774 11.1164C24.1765 10.9727 24.0076 10.893 23.8324 10.9032C23.6158 10.9157 23.437 10.922 23.2958 10.922H20.5756C20.2995 10.922 20.0756 11.1459 20.0756 11.422V14.3883C20.0756 14.6644 19.8517 14.8883 19.5756 14.8883H18.7142C18.4381 14.8883 18.2142 14.6644 18.2142 14.3883V2.35353C18.2142 2.07738 18.4381 1.85353 18.7142 1.85353H23.2958C24.9834 1.85353 26.3112 2.25698 27.2791 3.0639C28.247 3.87081 28.731 4.98187 28.731 6.39707C28.731 7.40261 28.4828 8.25918 27.9864 8.96678C27.606 9.50904 27.1018 9.93829 26.4736 10.2545C26.1772 10.4038 26.0548 10.7819 26.2462 11.053L28.3976 14.0999C28.6315 14.4311 28.3946 14.8883 27.9892 14.8883H27.1853ZM23.2399 9.3392C24.4188 9.3392 25.3185 9.08472 25.9389 8.57574C26.5594 8.06676 26.8696 7.34054 26.8696 6.39707C26.8696 5.4536 26.5594 4.73359 25.9389 4.23703C25.3185 3.72805 24.4188 3.47356 23.2399 3.47356H20.5756C20.2995 3.47356 20.0756 3.69742 20.0756 3.97356V8.8392C20.0756 9.11535 20.2995 9.3392 20.5756 9.3392H23.2399Z" fill="black"/>
<path d="M48.458 5.37014C48.458 5.094 48.6818 4.87014 48.958 4.87014H50.8617C51.1379 4.87014 51.3617 5.094 51.3617 5.37014V14.3883C51.3617 14.6644 51.1379 14.8883 50.8617 14.8883H49.9099H48.458V12.4373V5.37014Z" fill="black"/>
<path d="M58.6891 4.72117C59.93 4.72117 60.929 5.0936 61.6859 5.83844C62.4553 6.58328 62.84 7.68813 62.84 9.15299V14.3883C62.84 14.6644 62.6161 14.8883 62.34 14.8883H60.4362C60.1601 14.8883 59.9362 14.6644 59.9362 14.3883V9.5999C59.9362 8.8054 59.7625 8.21573 59.4151 7.8309C59.0676 7.43365 58.565 7.23502 57.9073 7.23502C57.1752 7.23502 56.592 7.46468 56.1577 7.924C55.7233 8.37091 55.5062 9.04127 55.5062 9.93508V14.3883C55.5062 14.6644 55.2823 14.8883 55.0062 14.8883H53.1024C52.8263 14.8883 52.6024 14.6644 52.6024 14.3883V5.37014C52.6024 5.094 52.8263 4.87014 53.1024 4.87014H55.0484C55.2292 4.87014 55.3759 5.01678 55.3759 5.19767C55.3759 5.49684 55.7661 5.65908 56.0135 5.49086C56.2549 5.32676 56.5201 5.18814 56.8091 5.07498C57.38 4.83911 58.0066 4.72117 58.6891 4.72117Z" fill="black"/>
<path d="M68.6646 11.3901C68.4789 11.1595 68.1346 11.1399 67.9239 11.3478L67.0704 12.1904C66.9752 12.2843 66.9216 12.4125 66.9216 12.5462V14.3883C66.9216 14.6644 66.6977 14.8883 66.4216 14.8883H64.5179C64.2417 14.8883 64.0179 14.6644 64.0179 14.3883V1.57144C64.0179 1.2953 64.2417 1.07144 64.5179 1.07144H66.4216C66.6977 1.07144 66.9216 1.2953 66.9216 1.57144V7.72955C66.9216 8.16856 67.4469 8.39445 67.7655 8.09245L71.0209 5.00723C71.1138 4.91921 71.2369 4.87014 71.3648 4.87014H73.4358C73.8791 4.87014 74.1032 5.40422 73.7926 5.72048L70.7664 8.80193C70.5902 8.98137 70.5747 9.26378 70.7302 9.46144L74.3633 14.0791C74.6214 14.4071 74.3877 14.8883 73.9703 14.8883H71.7213C71.5699 14.8883 71.4268 14.8198 71.3319 14.7019L68.6646 11.3901Z" fill="black"/>
<path d="M41.647 13.9759C42.3047 14.5841 43.2292 14.8883 44.4205 14.8883H48.458V12.4373H44.8735C44.4764 12.4373 44.1662 12.3256 43.9429 12.1021C43.7319 11.8662 43.6264 11.5373 43.6264 11.1152V7.53717C43.6264 7.26103 43.8503 7.03717 44.1264 7.03717H45.6207C45.8968 7.03717 46.1207 6.81331 46.1207 6.53717V5.30264C46.1207 5.0265 45.8968 4.80264 45.6207 4.80264H44.1264C43.8503 4.80264 43.6264 4.57878 43.6264 4.30264V2.86328C43.6264 2.58714 43.4026 2.36328 43.1264 2.36328H41.2227C40.9465 2.36328 40.7227 2.58714 40.7227 2.86328V4.30264C40.7227 4.57878 40.4988 4.80264 40.2227 4.80264H39.6778C39.4016 4.80264 39.1778 5.0265 39.1778 5.30264V6.53717C39.1778 6.81331 39.4016 7.03717 39.6778 7.03717H40.2175C40.4957 7.03717 40.7204 7.26416 40.7175 7.54229L40.6791 11.2944C40.6791 12.4738 41.0018 13.3676 41.647 13.9759Z" fill="black"/>
<path fill-rule="evenodd" clip-rule="evenodd" d="M38.7998 10.0096C38.7998 10.0389 38.7992 10.0702 38.7981 10.1035C38.7894 10.3582 38.5698 10.5496 38.315 10.5496H31.3271C31.0256 10.5496 30.7891 10.8163 30.8732 11.1058C31.0524 11.723 31.3927 12.239 31.8941 12.6538C32.5518 13.1751 33.3646 13.4358 34.3325 13.4358H38.2998C38.576 13.4358 38.7998 13.6597 38.7998 13.9358V14.5C38.7998 14.7762 38.576 15 38.2998 15H34.2767C33.2343 15 32.3098 14.789 31.5032 14.3669C30.6967 13.9324 30.07 13.3303 29.6233 12.5607C29.1889 11.791 28.9718 10.922 28.9718 9.9537C28.9718 8.99782 29.1827 8.13504 29.6046 7.36537C30.039 6.5957 30.6284 5.99982 31.3729 5.57774C32.1299 5.14325 32.9799 4.92601 33.923 4.92601C34.8661 4.92601 35.7037 5.14325 36.4359 5.57774C37.1804 5.99982 37.7574 6.5957 38.1669 7.36537C38.5889 8.13504 38.7998 9.01644 38.7998 10.0096ZM31.7638 7.2164C32.3471 6.69501 33.0668 6.43431 33.923 6.43431C34.7793 6.43431 35.4928 6.70122 36.0636 7.23502C36.5119 7.63579 36.8172 8.12824 36.9796 8.71238C37.0598 9.00107 36.8238 9.26472 36.5241 9.26472H31.3209C31.0217 9.26472 30.7858 9.00179 30.8633 8.71272C31.0229 8.11774 31.3231 7.61897 31.7638 7.2164Z" fill="black"/>
<path fill-rule="evenodd" clip-rule="evenodd" d="M8.75712 9.13204C9.59244 9.04737 10.7716 8.74343 11.7549 8.09543C12.7855 7.41626 13.5882 6.3716 13.5882 4.78939C13.5882 3.15805 13.0174 2.18054 12.3419 1.60574C11.654 1.02034 10.8253 0.825684 10.2852 0.825684H1.15836C0.86317 0.825684 0.716219 1.18338 0.926153 1.3909L8.75712 9.13204Z" fill="#EA0022"/>
<path d="M11.7549 8.09543C10.7716 8.74343 9.59244 9.04737 8.75712 9.13204L0.926153 1.3909C0.716219 1.18338 0.86317 0.825684 1.15836 0.825684H10.2852C10.8253 0.825684 11.654 1.02034 12.3419 1.60574C13.0174 2.18054 13.5882 3.15805 13.5882 4.78939C13.5882 6.3716 12.7855 7.41626 11.7549 8.09543Z" fill="#EA0022"/>
<path d="M11.7553 8.42586C10.772 9.07386 9.59281 9.37779 8.7575 9.46247L1.07458 1.53442L7.34987 6.53381C8.7575 7.64429 10.1774 7.54564 11.5156 6.91591C12.221 6.58393 13.0371 5.96147 13.6596 4.28772C13.737 4.83977 14.0246 6.88641 11.7553 8.42586Z" fill="#9B0003"/>
<path fill-rule="evenodd" clip-rule="evenodd" d="M7.3133 14.3683L1.92542 9.23095C1.71518 9.03048 1.36719 9.17951 1.36719 9.47V14.038C1.36719 14.2205 1.51507 14.3683 1.69749 14.3683H7.3133Z" fill="#BDBDBD"/>
<path d="M1.92542 9.23095L7.3133 14.3683H1.69749C1.51507 14.3683 1.36719 14.2205 1.36719 14.038V9.47C1.36719 9.17951 1.71518 9.03048 1.92542 9.23095Z" fill="#BDBDBD"/>
<path opacity="0.58" d="M1.85064 12.8296L1.85066 11.9291C1.87027 12.7072 2.01904 13.2327 2.43269 13.4621C3.17846 13.8599 2.89673 13.9096 2.07634 13.8599C1.82823 13.8448 1.86079 13.2324 1.85064 12.8296Z" fill="white"/>
<path d="M4.55871 11.7538C6.28648 14.0172 4.31394 14.5831 3.11169 14.5831H7.5823L4.55871 11.7538Z" fill="#797979"/>
<path opacity="0.58" d="M10.3636 1.21362H7.93506C9.4223 1.21362 10.7524 1.48805 11.2105 2.26711C11.6722 3.29451 12.7721 3.23383 12.3259 2.39105C11.8798 1.54826 11.1336 1.21362 10.3636 1.21362Z" fill="white"/>
<path fill-rule="evenodd" clip-rule="evenodd" d="M0.461685 1.86079C-0.168111 1.23821 0.272729 0.165131 1.1583 0.165131H10.2851C10.956 0.165131 11.944 0.399873 12.77 1.10268C13.6084 1.81608 14.2487 2.98558 14.2487 4.78945C14.2487 6.64244 13.2898 7.87514 12.1184 8.64711C11.222 9.23784 10.194 9.56592 9.34759 9.71586L13.0071 13.3334C13.6369 13.9559 13.196 15.029 12.3105 15.029H1.69729C1.15003 15.029 0.706386 14.5854 0.706386 14.0381V9.47005C0.706386 8.59856 1.75037 8.15149 2.38109 8.75288L8.27038 14.3684H12.3105C12.6056 14.3684 12.7526 14.0107 12.5427 13.8032L0.461685 1.86079ZM11.7549 8.0955C10.7716 8.7435 9.59238 9.04743 8.75706 9.13211L0.926093 1.39097C0.716159 1.18344 0.863109 0.825747 1.1583 0.825747H10.2851C10.8253 0.825747 11.6539 1.02041 12.3419 1.6058C13.0174 2.1806 13.5881 3.15811 13.5881 4.78945C13.5881 6.37166 12.7855 7.41632 11.7549 8.0955ZM7.3131 14.3684L1.92522 9.231C1.71498 9.03053 1.36699 9.17956 1.36699 9.47005V14.0381C1.36699 14.2205 1.51487 14.3684 1.69729 14.3684H7.3131Z" fill="black"/>
<path fill-rule="evenodd" clip-rule="evenodd" d="M0.345659 1.97826C-0.389102 1.25193 0.12521 0 1.15837 0H10.2852C10.9888 0 12.0167 0.244764 12.8771 0.976922C13.7562 1.72498 14.4139 2.94247 14.4139 4.78947C14.4139 6.71016 13.4159 7.98987 12.2093 8.78504C11.3978 9.31983 10.4837 9.64367 9.68537 9.81749L13.1232 13.2159C13.858 13.9423 13.3437 15.1942 12.3105 15.1942H1.69736C1.05889 15.1942 0.541312 14.6766 0.541312 14.0381V9.47008C0.541312 8.45334 1.75929 7.93175 2.49513 8.63338L8.33658 14.2033H12.3105C12.4581 14.2033 12.5316 14.0244 12.4266 13.9207L0.345659 1.97826ZM6.90064 14.2033L1.81133 9.35055C1.70621 9.25032 1.53221 9.32483 1.53221 9.47008V14.0381C1.53221 14.1293 1.60615 14.2033 1.69736 14.2033H6.90064ZM8.81742 8.9595C9.62698 8.86642 10.7376 8.56819 11.6641 7.95762C12.6595 7.30164 13.423 6.30399 13.423 4.78947C13.423 3.20127 12.8697 2.27175 12.2349 1.73161C11.5815 1.17556 10.7927 0.990925 10.2852 0.990925H1.15837C1.01078 0.990925 0.937303 1.16977 1.04227 1.27354L8.81742 8.9595Z" fill="black"/>
</svg>
